HIERARCHY
ROOT joint_Root
{
	OFFSET 0.0 0.0 0.0
	CHANNELS 6 Xposition Yposition Zposition Zrotation Xrotation Yrotation 
	JOINT Hips
	{
		OFFSET -0.726466 93.3139 -2.00062
		CHANNELS 6 Xposition Yposition Zposition Zrotation Xrotation Yrotation 
		JOINT Spine
		{
			OFFSET 15.7357 0.0 0.0
			CHANNELS 6 Xposition Yposition Zposition Zrotation Xrotation Yrotation 
			JOINT Chest
			{
				OFFSET 8.98455 -0.406207 0.0
				CHANNELS 6 Xposition Yposition Zposition Zrotation Xrotation Yrotation 
				JOINT Neck
				{
					OFFSET 16.3773 0.0 0.0
					CHANNELS 6 Xposition Yposition Zposition Zrotation Xrotation Yrotation 
					JOINT Head
					{
						OFFSET 6.45672 0.0 0.0
						CHANNELS 6 Xposition Yposition Zposition Zrotation Xrotation Yrotation 
						End Site
						{
							OFFSET 0.0 0.0 0.0
						}
					}
				}
				JOINT Shoulder_L
				{
					OFFSET 12.9942 -0.242716 4.98039
					CHANNELS 6 Xposition Yposition Zposition Zrotation Xrotation Yrotation 
					JOINT UpperArm_L
					{
						OFFSET 5.34809 0.0 0.0
						CHANNELS 6 Xposition Yposition Zposition Zrotation Xrotation Yrotation 
						JOINT LowerArm_L
						{
							OFFSET 24.3286 1.87007e-05 0.0
							CHANNELS 6 Xposition Yposition Zposition Zrotation Xrotation Yrotation 
							JOINT Hand_L
							{
								OFFSET 22.2916 0.0 0.0
								CHANNELS 6 Xposition Yposition Zposition Zrotation Xrotation Yrotation 
								End Site
								{
									OFFSET 0.0 0.0 0.0
								}
							}
						}
					}
				}
				JOINT Shoulder_R
				{
					OFFSET 12.9945 -0.242716 -4.98039
					CHANNELS 6 Xposition Yposition Zposition Zrotation Xrotation Yrotation 
					JOINT UpperArm_R
					{
						OFFSET -5.34813 0.0 0.0
						CHANNELS 6 Xposition Yposition Zposition Zrotation Xrotation Yrotation 
						JOINT LowerArm_R
						{
							OFFSET -24.3289 0.000322201 0.0
							CHANNELS 6 Xposition Yposition Zposition Zrotation Xrotation Yrotation 
							JOINT Hand_R
							{
								OFFSET -22.2915 -0.000108084 0.0
								CHANNELS 6 Xposition Yposition Zposition Zrotation Xrotation Yrotation 
								End Site
								{
									OFFSET 0.0 0.0 0.0
								}
							}
						}
					}
				}
			}
		}
		JOINT UpperLeg_L
		{
			OFFSET -2.19248 -6.46944 0.0
			CHANNELS 6 Xposition Yposition Zposition Zrotation Xrotation Yrotation 
			JOINT LowerLeg_L
			{
				OFFSET 39.0811 0.0 -1.23785e-05
				CHANNELS 6 Xposition Yposition Zposition Zrotation Xrotation Yrotation 
				JOINT Foot_L
				{
					OFFSET 40.9854 0.0 -1.26872e-05
					CHANNELS 6 Xposition Yposition Zposition Zrotation Xrotation Yrotation 
					JOINT Toes_L
					{
						OFFSET 11.7543 0.0 0.0
						CHANNELS 6 Xposition Yposition Zposition Zrotation Xrotation Yrotation 
						End Site
						{
							OFFSET 0.0 0.0 0.0
						}
					}
				}
			}
		}
		JOINT UpperLeg_R
		{
			OFFSET -2.19251 6.46944 0.0
			CHANNELS 6 Xposition Yposition Zposition Zrotation Xrotation Yrotation 
			JOINT LowerLeg_R
			{
				OFFSET -39.0811 -0.00228153 -0.0401928
				CHANNELS 6 Xposition Yposition Zposition Zrotation Xrotation Yrotation 
				JOINT Foot_R
				{
					OFFSET -40.9854 0.0 0.0
					CHANNELS 6 Xposition Yposition Zposition Zrotation Xrotation Yrotation 
					JOINT Toes_R
					{
						OFFSET -11.7543 0.0 0.0
						CHANNELS 6 Xposition Yposition Zposition Zrotation Xrotation Yrotation 
						End Site
						{
							OFFSET 0.0 0.0 0.0
						}
					}
				}
			}
		}
	}
}
MOTION
Frames:	4
Frame Time:	0.0333333
0.000000 0.000000 0.000000 0.000000 0.000000 -0.000000 -0.847178 92.301300 -1.248280 88.081800 -1.828100 3.828320 15.735700 0.000005 -0.000001 84.935200 85.315000 -84.294500 8.984550 -0.406207 -0.000000 1.572640 -0.861371 1.292130 16.377300 -0.000001 -0.000001 3.173410 -1.791280 -0.158682 6.456720 -0.000001 -0.000000 5.224030 -1.935610 -0.464514 12.994200 -0.242716 4.980390 -90.257400 0.820660 -72.584000 5.348090 -0.000007 -0.000001 -66.581900 40.458800 -15.609800 24.328600 0.000019 0.000005 1.340620 3.092230 -23.451900 22.291600 -0.000001 0.000005 2.934920 5.493290 -6.265480 12.994500 -0.242716 -4.980390 88.178300 5.988860 -73.046900 -5.348130 -0.000001 -0.000004 -64.863200 41.469200 -16.525100 -24.328900 0.000322 -0.000009 2.035860 6.888900 -16.516000 -22.291500 -0.000108 -0.000004 8.103940 5.431170 -3.979100 -2.192480 -6.469440 -0.000000 -175.602000 -6.390560 -2.666420 39.081100 -0.000007 -0.000012 -0.101097 0.240696 22.783300 40.985400 -0.000006 -0.000013 -0.275235 3.085970 -66.452100 11.754300 -0.000000 0.000003 -0.000029 -0.000351 -16.591200 -2.192510 6.469440 -0.000001 -179.991000 12.940600 -179.789000 -39.081100 -0.002282 -0.040193 -0.008594 0.034073 19.276900 -40.985400 0.000008 0.000006 4.395310 6.869200 -66.286700 -11.754300 -0.000006 -0.000006 -0.005850 -0.069466 -19.400100
0.000000 0.000000 0.000000 0.000000 0.000000 -0.000000 -0.826762 92.291700 -1.293420 88.094600 -1.866780 3.858010 15.735700 0.000005 -0.000001 85.071400 85.293200 -84.370600 8.984550 -0.406207 -0.000000 1.618490 -0.845891 1.412410 16.377300 -0.000001 -0.000001 3.167450 -1.826460 -0.163815 6.456720 -0.000001 -0.000000 5.137130 -1.934600 -0.686508 12.994200 -0.242716 4.980390 -90.368400 1.169520 -72.516700 5.348090 -0.000007 -0.000001 -65.874900 38.968600 -15.971100 24.328600 0.000019 0.000005 2.268530 5.036610 -24.284700 22.291600 -0.000001 0.000005 2.377490 5.494450 -6.311320 12.994500 -0.242716 -4.980390 88.221500 5.841050 -73.032800 -5.348130 -0.000001 -0.000004 -64.929900 41.480300 -16.535800 -24.328900 0.000322 -0.000009 2.013500 6.809760 -16.523100 -22.291500 -0.000108 -0.000004 8.093840 5.433250 -4.050940 -2.192480 -6.469440 -0.000000 -175.635000 -6.394230 -2.719150 39.081100 -0.000007 -0.000012 -0.098588 0.233644 22.877700 40.985400 -0.000006 -0.000013 -0.260949 3.055330 -66.464400 11.754300 -0.000000 0.000003 -0.000025 -0.000311 -16.589700 -2.192510 6.469440 -0.000001 179.974000 12.914800 -179.863000 -39.081100 -0.002282 -0.040193 -0.013524 0.047843 19.398200 -40.985400 0.000008 0.000006 4.281680 6.882550 -66.284800 -11.754300 -0.000006 -0.000006 -0.005970 -0.070564 -19.444900
0.000000 0.000000 0.000000 0.000000 0.000000 -0.000000 -0.826567 92.302100 -1.339740 88.132100 -1.829810 3.887510 15.735700 0.000005 -0.000001 85.278500 85.263100 -84.519100 8.984550 -0.406207 -0.000000 1.681580 -0.819684 1.529430 16.377300 -0.000001 -0.000001 3.103700 -1.919440 -0.245900 6.456720 -0.000001 -0.000000 5.106970 -2.027790 -0.821733 12.994200 -0.242716 4.980390 -90.515900 1.630730 -72.441700 5.348090 -0.000007 -0.000001 -64.586300 36.087600 -16.573500 24.328600 0.000019 0.000005 3.353010 6.739490 -26.528900 22.291600 -0.000001 0.000005 1.864340 5.491550 -6.196620 12.994500 -0.242716 -4.980390 88.268400 5.677470 -73.007700 -5.348130 -0.000001 -0.000004 -65.025300 41.435800 -16.512700 -24.328900 0.000322 -0.000009 1.997430 6.723960 -16.595200 -22.291500 -0.000108 -0.000004 8.062180 5.433440 -4.057670 -2.192480 -6.469440 -0.000000 -175.679000 -6.312610 -2.686500 39.081100 -0.000007 -0.000012 -0.100576 0.239275 22.798900 40.985400 -0.000006 -0.000013 -0.271061 3.014720 -66.393800 11.754300 -0.000000 0.000003 -0.000030 -0.000360 -16.591600 -2.192510 6.469440 -0.000001 179.929000 12.927000 -179.849000 -39.081100 -0.002282 -0.040193 -0.013124 0.046788 19.366600 -40.985400 0.000008 0.000006 4.210920 6.883590 -66.228700 -11.754300 -0.000006 -0.000006 -0.005808 -0.069080 -19.384400
0.000000 0.000000 0.000000 0.000000 0.000000 -0.000000 -0.871214 92.300100 -1.406800 88.131400 -1.650200 3.901550 15.735700 0.000005 -0.000001 85.435700 85.261800 -84.596900 8.984550 -0.406207 -0.000000 1.686920 -0.798177 1.687790 16.377300 -0.000001 -0.000001 3.174590 -2.037370 -0.311142 6.456720 -0.000001 -0.000000 4.965960 -2.208360 -1.020480 12.994200 -0.242716 4.980390 -90.626500 1.964980 -72.312000 5.348090 -0.000007 -0.000001 -62.612600 32.196800 -17.877500 24.328600 0.000019 0.000005 3.650740 6.388830 -29.829900 22.291600 -0.000001 0.000005 1.801190 5.490000 -6.135800 12.994500 -0.242716 -4.980390 88.302900 5.525300 -72.896100 -5.348130 -0.000001 -0.000004 -65.161800 41.287600 -16.378500 -24.328900 0.000322 -0.000009 1.972200 6.573360 -16.750100 -22.291500 -0.000108 -0.000004 7.952300 5.431120 -3.977570 -2.192480 -6.469440 -0.000000 -175.632000 -6.314730 -2.780720 39.081100 -0.000007 -0.000012 -0.100971 0.239491 22.860700 40.985400 -0.000006 -0.000013 -0.269225 3.192750 -66.353100 11.754300 -0.000000 0.000003 -0.000025 -0.000311 -16.589700 -2.192510 6.469440 -0.000001 179.960000 13.038500 -179.889000 -39.081100 -0.002282 -0.040193 -0.015688 0.053958 19.408200 -40.985400 0.000008 0.000006 4.201200 6.809770 -66.216200 -11.754300 -0.000006 -0.000006 -0.005775 -0.068775 -19.372000
